# xmcd
#
# Track frame offsets:
#      150
#      16749
#      30046
#      47634
#      62634
#      83315
#      100963
#
# Disc length: 1553 seconds
#
# Revision: 0
# Processed by: cddbd v1.5.1PL0 Copyright (c) Steve Scherf et al.
# Submitted via: SoundClick v1.0
#
DISCID=3c060f07
DTITLE=gary w. brockway - WE LOVE BEING TOGETHER
DYEAR=1900
DGENRE=
TTITLE0=My Music
TTITLE1=Wish I Was Rich
TTITLE2=Wel Ove Being Together
TTITLE3=Why Cant We  Be  Lovers
TTITLE4=Highway To Heaven
TTITLE5=Holding/(instrumental)
TTITLE6=Ive  Got Everything
EXTD=
EXTT0=
EXTT1=
EXTT2=
EXTT3=
EXTT4=
EXTT5=
EXTT6=
PLAYORDER=
